<svg t="1650348647242" class="icon" viewBox="0 0 1024 1024" version="1.1" xmlns="http://www.w3.org/2000/svg" p-id="731" width="200" height="200"><path d="M522.091286 647.435685l39.834025 67.983402c18.058091 30.804979 36.116183 61.078838 54.174274 91.883818 1.593361 3.186722 1.593361 4.780083-1.062241 7.435684L525.278008 902.904564c-2.655602 2.655602-4.248963 3.186722-6.904564 0-29.742739-29.742739-60.016598-59.485477-90.290456-88.697095-2.124481-2.124481-2.655602-3.717842-1.062241-6.373444 30.804979-52.049793 61.609959-104.630705 92.414938-156.680498 1.062241-1.593361 2.124481-2.655602 2.655601-3.717842z m379.219917 228.381742c-3.717842-23.369295-9.560166-46.207469-17.526971-68.514522-38.771784-103.568465-108.348548-178.456432-208.73029-224.663901-10.091286-4.780083-20.713693-9.029046-31.3361-12.746888 65.327801-41.958506 106.224066-99.850622 116.846473-176.33195s-10.622407-144.46473-62.672199-201.294606c-90.821577-99.850622-245.377593-106.755187-344.697095-15.402489-5.842324 5.311203-11.153527 11.153527-16.464731 16.99585C286.273859 248.564315 265.029046 313.892116 274.058091 387.717842c9.560166 79.136929 50.987552 139.153527 117.377594 182.174274-1.062241 1.593361-3.186722 1.593361-4.780083 2.124482-10.091286 3.717842-19.651452 7.435685-29.211619 11.684647-74.887967 34.522822-133.842324 87.634855-175.800829 158.804979-23.900415 40.896266-39.834025 85.510373-47.80083 131.717842-2.655602 14.340249 3.186722 27.087137 15.402489 32.929461 14.340249 6.373444 29.211618 3.186722 38.771785-8.497925 4.780083-5.842324 6.373444-13.278008 7.435684-20.713693 13.278008-69.576763 45.145228-129.062241 96.663901-177.394191 86.572614-79.66805 188.547718-107.286307 302.738589-80.19917 92.414938 21.775934 161.460581 76.481328 208.73029 158.804979 19.120332 33.460581 30.273859 69.576763 37.709544 107.286307 2.655602 15.93361 19.120332 26.024896 35.585062 22.838174 15.93361-2.124481 27.087137-18.058091 24.431535-33.460581z m-383.468879-327.170124c-104.099585 0-189.078838-84.448133-189.609959-188.547718v-1.062241c0.53112-105.161826 85.510373-189.609959 189.609959-189.078838 104.630705 0 189.078838 85.510373 189.078838 189.609959 0 103.568465-84.979253 189.078838-189.078838 189.078838z" p-id="732" fill="#0c4498"></path></svg>