<svg t="1650356231781" class="icon" viewBox="0 0 1024 1024" version="1.1" xmlns="http://www.w3.org/2000/svg" p-id="3321" width="200" height="200"><path d="M1024.192421 559.111055a464.760664 464.760664 0 0 1-464.760664 464.888945H464.953085A464.824804 464.824804 0 0 1 0.06414 559.111055V464.888945A464.888945 464.888945 0 0 1 464.953085 0h94.478672a464.824804 464.824804 0 0 1 464.760664 464.888945v94.22211z" fill="#4B5AA7" p-id="3322"></path><path d="M510.941685 874.809646a28.606577 28.606577 0 0 1-8.658941-1.539367 384.841842 384.841842 0 0 1-247.774006-366.112872V369.96129c0-10.839712 6.991293-20.268337 17.317883-23.475352A817.788913 817.788913 0 0 0 497.087379 237.832258a24.437457 24.437457 0 0 1 27.772753 0 817.917194 817.917194 0 0 0 225.324898 108.58954 24.373317 24.373317 0 0 1 17.382023 23.475352v137.516818a384.200438 384.200438 0 0 1-247.709865 365.59975 25.07886 25.07886 0 0 1-8.915503 1.795928z" fill="#FFFFFF" p-id="3323"></path><path d="M690.213843 758.138428l-63.178203-63.370623a139.184466 139.184466 0 0 0-14.110867-180.170123 138.607203 138.607203 0 0 0-196.39762 0.064141 138.992045 138.992045 0 0 0 180.298403 210.316066l63.049922 63.370623a21.679424 21.679424 0 0 0 30.338365 0.256562 21.679424 21.679424 0 0 0 0-30.466646z m-175.48788-49.067335a96.018039 96.018039 0 0 1-96.21046-96.338741 95.761478 95.761478 0 0 1 96.21046-95.953899c25.656123 0 49.772878 10.005888 67.988725 28.029314 18.151707 18.151707 28.093454 42.332603 28.093455 67.924585a96.21046 96.21046 0 0 1-96.08218 96.338741z" fill="#4B5AA7" p-id="3324"></path></svg>