<svg t="1650356850602" class="icon" viewBox="0 0 1024 1024" version="1.1" xmlns="http://www.w3.org/2000/svg" p-id="20919" width="200" height="200"><path d="M880.58 684.512C845.752 806.92 719.82 936 490.324 936c-221.716 0-309.82-128.372-345.764-249.728" fill="#6E6E96" opacity=".5" p-id="20920"></path><path d="M490.324 966c-192.464 0-321.972-93.78-374.528-271.204a30 30 0 0 1 57.528-17.036c44.864 151.448 151.52 228.248 317 228.248 136.576 0 313.168-60.156 361.396-229.696 4.54-15.94 21.136-25.192 37.064-20.648a30 30 0 0 1 20.648 37.068c-35.86 126.048-167.152 273.268-419.108 273.268z" fill="#6E6E96" p-id="20921"></path><path d="M490.324 912.064c-192.464 0-321.972-93.78-374.528-271.204a29.988 29.988 0 0 1 20.244-37.28 30.004 30.004 0 0 1 37.284 20.248c44.864 151.448 151.52 228.248 317 228.248 136.576 0 313.168-60.156 361.396-229.7a30 30 0 0 1 37.064-20.644 29.992 29.992 0 0 1 20.648 37.064c-35.86 126.052-167.152 273.268-419.108 273.268z" fill="#6E6E96" opacity=".15" p-id="20922"></path><path d="M736.42 718.816c148.092-15.644 248.752-63.26 248.752-207.68C985.176 301.748 773.58 132 512.568 132 251.552 132 39.956 301.748 39.956 511.136c0 138.948 93.18 188.292 232.144 205.76l464.32 1.92z" fill="#71CC92" p-id="20923"></path><path d="M736.428 748.816h-0.128l-464.324-1.916a28.8 28.8 0 0 1-3.62-0.236c-110.928-13.944-258.404-53.54-258.404-235.532 0-225.6 225.472-409.136 502.612-409.136s502.608 183.536 502.608 409.136c0 77.68-27.3 137.012-81.14 176.352-44.336 32.4-106.124 51.832-194.452 61.16a29.664 29.664 0 0 1-3.152 0.172zM274.06 686.916l460.832 1.9c76.484-8.228 128.548-24.056 163.748-49.764 38.576-28.184 56.54-68.828 56.54-127.908 0-192.516-198.56-349.136-442.608-349.136-244.056 0-442.612 156.62-442.612 349.136-0.004 106.18 59.164 157.188 204.1 175.772z" fill="#6E6E96" p-id="20924"></path><path d="M512.568 252L565.2 355.032l117.7 16.524-85.164 80.2 20.096 113.244-105.264-53.468-105.268 53.468 20.1-113.244-85.164-80.2 117.696-16.524z" fill="#FFFF00" p-id="20925"></path><path d="M617.828 595a30.12 30.12 0 0 1-13.584-3.248l-91.672-46.572-91.684 46.572a30 30 0 1 1-43.128-31.992l17.268-97.276-73.36-69.084a29.992 29.992 0 0 1 16.396-51.548l102.248-14.352 45.54-89.144a30 30 0 1 1 53.432 0l45.536 89.14 102.248 14.352a30.004 30.004 0 0 1 16.388 51.548l-73.36 69.084 17.264 97.272a30 30 0 0 1-29.532 35.248z m-209.516-202.424l39.656 37.34a30 30 0 0 1 8.972 27.084l-9.588 54.008 51.632-26.224a30.004 30.004 0 0 1 27.172 0l51.624 26.224-9.584-54.008a30.008 30.008 0 0 1 8.972-27.084l39.652-37.34-55.792-7.832a29.992 29.992 0 0 1-22.544-16.064l-25.916-50.736-25.92 50.736a30 30 0 0 1-22.544 16.06l-55.792 7.836z" fill="#6E6E96" p-id="20926"></path><path d="M736.428 697.608h-0.128l-464.324-1.912a29.576 29.576 0 0 1-3.62-0.236c-110.928-13.948-258.4-53.544-258.4-235.532a30 30 0 0 1 60 0c0 106.176 59.168 157.192 204.104 175.776l460.832 1.896c76.484-8.22 128.548-24.048 163.748-49.76 38.576-28.184 56.54-68.824 56.54-127.904 0-16.568 13.424-30 30-30s30 13.432 30 30c0 77.672-27.3 137.008-81.14 176.344-44.336 32.404-106.128 51.836-194.456 61.164a27.8 27.8 0 0 1-3.156 0.164z" fill="#6E6E96" opacity=".3" p-id="20927"></path></svg>