<svg t="1650356888439" class="icon" viewBox="0 0 1024 1024" version="1.1" xmlns="http://www.w3.org/2000/svg" p-id="22635" width="200" height="200"><path d="M473.2416 552.2944c-135.4752-5.1712-256.0512-13.1584-318.8736-31.232 12.6976 33.3824 60.416 128.768 233.984 148.2752H942.08v-17.5104s35.2256-32 32.1536-99.2256c-75.3664 1.28-352.8192 5.3248-500.992-0.3072z" fill="#EDC951" p-id="22636"></path><path d="M920.832 490.2912c-17.408-25.9072-23.552-40.9088-40.6528-53.0432 0-4.608-7.936-18.8928-17.2032-29.952-0.8704 2.816-2.9696-22.016-9.0624-20.8384-17.408 3.3792-245.4528 71.1168-267.9296 79.7696-11.4688 3.3792-26.368 12.5952-43.1104 4.1984s-47.2064-27.3408-47.2064-27.3408l-31.232-20.5312s-5.7856-18.688 6.3488-37.0176c6.5536-14.8992 17.8176-27.5456 12.1344-33.28-11.3152-11.52-32.4608-27.5456-31.232-40.6016-11.3152-17.5616-50.6368-33.3824-50.6368-33.3824s-14.592 35.3792-63.232 56.4736c-0.8192 0.3584-23.6544 10.3936-24.5248 10.8032-51.5584 23.04-195.4816 116.6336-214.4256 153.4464 29.3376 13.4144 192.6656 47.9232 367.872 53.7088 175.2064 5.7344 528.4352 0 528.4352 0s-14.6944-52.7872-74.3424-62.4128z" fill="#63CCFC" p-id="22637"></path><path d="M502.1184 419.1232s8.2944-30.0032 22.4768-38.6048c26.0096-2.304 254.0544-31.744 288.256-31.744 12.8512 0 11.264 14.2848 20.5824 25.0368 9.3184 10.7008 12.2368 14.6944 12.2368 14.6944s6.6048 8.2944-10.2912 11.3152c-16.8448 3.0208-220.8768 64.512-242.6368 72.192-11.1104 3.0208-15.9744 4.9152-32.1536-2.56-16.1792-7.5264-52.6336-27.0848-62.3616-33.7408 3.8912-15.0528 3.8912-16.5888 3.8912-16.5888z" fill="#FFB47A" p-id="22638"></path><path d="M1010.0224 548.4032c-0.7168-2.7648-17.8688-65.5872-84.736-80.9984-3.2768-5.3248-6.144-10.24-8.7552-14.6944-9.5744-16.2304-17.3056-29.44-30.464-40.7552-3.328-10.2912-11.008-22.4768-16.4352-30.1568-0.6144-8.448-4.9664-15.2064-6.0416-16.6912-0.4096-0.5632-9.6768-14.4896-20.1216-28.3136-12.8-16.9984-25.3952-23.6032-44.8512-23.6032-39.2704 0-289.3824 24.0128-310.2208 26.1632-0.1024 0-0.2048 0.0512-0.3584 0.1024-10.3424-6.8096-15.0016-11.008-16.8448-13.056-2.7648-2.9696-4.6592-7.424-5.7856-13.1072 3.328-2.9696 5.3248-7.3216 5.1712-11.9296-0.8192-29.5424 1.7408-52.6848 7.6288-69.2224 1.1776-0.6144 2.2528-1.28 3.328-2.048 2.7648 1.4336 5.8368 2.2016 9.0624 2.2016 12.9536 0 22.4256-11.5712 22.784-27.5968 0.5632-5.7856 0.768-18.2784-6.4-26.2144a19.84512 19.84512 0 0 0-14.9504-6.7072c-2.6112 0-5.0176 0.4608-7.168 1.3312-4.6592-5.376-10.9568-9.2672-18.8928-9.2672-4.5056 0-8.4992 1.1776-11.8784 3.2768-1.1776 0.3584-2.3552 0.8192-3.4816 1.4848-2.9184 1.792-71.4752 43.8784-95.9488 82.5856-1.5872 2.5088-2.304 5.4272-2.2528 8.2944-17.1008 13.568-42.8032 31.8976-70.6048 44.7488l-2.7648 1.3312c-6.7072 3.2256-16.896 8.4992-29.3888 15.3088-0.3072 0.1536-0.6144 0.2048-0.9216 0.3584-34.0992 18.5856-87.552 50.176-135.3728 83.0464-0.0512 0-0.0512 0.0512-0.1024 0.0512C70.0928 434.0736 33.28 463.9744 23.4496 484.352c-3.6864 7.6288-0.512 16.7936 7.1168 20.48 6.2976 3.072 18.0736 7.0656 34.304 11.6224 19.456 42.1888 86.6304 148.992 271.8208 168.192 0.512 0.0512 1.0752 0.1024 1.5872 0.1024h600.9856c8.4992 0 15.36-6.8608 15.36-15.36v-11.1104c10.6496-11.4688 32.9216-41.3184 34.9184-90.5216 3.5328-0.0512 5.632-0.1024 5.888-0.1024 4.7104-0.1024 9.1136-2.304 11.9808-6.0928 2.8672-3.7376 3.7888-8.6016 2.6112-13.1584z m-191.0784-193.1264c7.424 9.8304 14.3872 19.968 17.5104 24.5248-16.9472 4.096-72.3456 18.8416-129.4336 34.4576l-1.0752 0.3072c-3.4304 0.9216-6.912 1.8944-10.3424 2.816-0.4096 0.1024-0.8192 0.2048-1.2288 0.3584l-10.0864 2.7648c-0.6144 0.1536-1.1776 0.3072-1.792 0.512-3.2768 0.9216-6.5024 1.792-9.728 2.7136-0.512 0.1536-1.024 0.256-1.4848 0.4096-3.1744 0.8704-6.3488 1.7408-9.472 2.6112-0.7168 0.2048-1.4336 0.4096-2.2016 0.6144-3.072 0.8704-6.0928 1.6896-9.0624 2.5088-0.6144 0.1536-1.1776 0.3072-1.7408 0.512-2.9184 0.8192-5.8368 1.6384-8.704 2.4576-0.7168 0.2048-1.3824 0.4096-2.048 0.5632-2.6624 0.768-5.2736 1.4848-7.8336 2.2016-0.6656 0.2048-1.3824 0.4096-2.048 0.5632-2.6624 0.768-5.2224 1.4848-7.7824 2.2016-0.5632 0.1536-1.1776 0.3584-1.7408 0.512-2.6112 0.768-5.1712 1.4848-7.68 2.2016-0.6144 0.1536-1.2288 0.3584-1.8432 0.512-2.4064 0.7168-4.8128 1.3824-7.1168 2.048-0.6144 0.2048-1.2288 0.3584-1.8432 0.5632-2.2528 0.6656-4.4032 1.28-6.5536 1.9456-0.5632 0.1536-1.1776 0.3584-1.7408 0.512-2.0992 0.6144-4.096 1.2288-6.0416 1.792-0.4608 0.1536-0.9728 0.3072-1.4336 0.4096-1.9456 0.5632-3.7888 1.1264-5.5296 1.6896-0.4096 0.1024-0.768 0.256-1.1264 0.3584-1.7408 0.5632-3.4304 1.0752-4.9664 1.536-0.3072 0.1024-0.5632 0.2048-0.8704 0.256-1.5872 0.512-3.0208 0.9728-4.4032 1.4336l-0.512 0.1536c-1.3824 0.4608-2.6624 0.8704-3.7376 1.28-0.0512 0-0.1536 0.0512-0.2048 0.0512-1.1264 0.4096-2.1504 0.768-2.9696 1.0752l-1.1776 0.3584c-9.4208 2.9696-10.5984 3.3792-21.9648-2.7136a511.1808 511.1808 0 0 1-17.3056-9.8816c-14.1824-8.448-30.9248-18.8928-41.3696-25.9584l1.3824-8.7552c0.256-1.3312 0.4096-2.4576 0.512-3.2256 0.0512-0.1024 0.0512-0.256 0.1024-0.3584 0.3072-1.1776 0.6144-2.4064 1.024-3.6864l0.6144-1.9968c0.256-0.768 0.512-1.5872 0.768-2.4064l1.0752-3.2256c0.2048-0.6144 0.4608-1.28 0.6656-1.8944 0.4096-1.1776 0.8704-2.304 1.28-3.4816 0.256-0.6144 0.512-1.28 0.7168-1.8944 0.4608-1.1264 0.9216-2.2528 1.3824-3.328 0.256-0.6144 0.5632-1.2288 0.8192-1.8432 1.1776-2.56 2.4064-4.9664 3.6352-7.1168 0.0512-0.0512 0.1024-0.1024 0.1024-0.2048 0.768-1.3312 1.5872-2.6112 2.4064-3.6864 0.1536-0.256 0.3072-0.4608 0.512-0.6656 0.3584-0.512 0.768-0.9728 1.1264-1.4336 48.0768-4.7616 267.8272-25.4976 302.1824-25.4976 8.7552 0.1024 12.4928 1.024 20.3776 11.4688zM447.6928 226.5088c-3.2768 10.496-5.3248 21.5552-6.5024 32.5632-12.3904-7.5776-26.9312-13.2096-37.9392-16.896 11.52-10.6496 24.8832-21.0432 36.9152-29.6448 1.4848 5.5296 4.0448 10.2912 7.5264 13.9776zM240.128 394.752c-12.8 3.4816-41.216 6.8608-70.0928 8.8576 26.8288-17.1008 53.248-32.8704 75.0592-45.2096 1.4848 17.0496-1.4336 33.9456-4.9664 36.352z m-118.3744 40.96c1.024 0.2048 2.0992 0.3584 3.1232 0.3584 37.8368 0 98.56-4.9664 123.2384-11.6736 32.6656-8.8064 28.416-61.4912 27.2896-71.9872-0.0512-0.4608-0.1536-0.9728-0.256-1.4336l-1.7408-8.192c6.9632-3.6864 13.312-6.912 18.7392-9.472l2.56-1.1776c33.8432-15.6672 64.1024-38.0928 82.2784-52.9408 18.8416 7.2192 41.8304 17.152 56.5248 25.9072 0.6656 13.4656 3.9424 30.0544 15.0016 42.1376 3.8912 4.1984 9.3696 8.8064 16.5888 13.8752-0.1536 0.2048-0.256 0.4608-0.3584 0.7168-8.2432 14.6944-12.8512 31.5392-14.336 37.4784-0.1024 0.4608-0.2048 0.8192-0.256 1.0752-0.1024 0.4096-0.1536 0.768-0.2048 1.1776l-0.512 3.3792c-0.4608 2.56-1.4848 7.4752-3.584 16.8448-0.6656 2.9184-0.4096 5.888 0.5632 8.6016 0.8192 4.096 3.2768 7.8336 6.9632 10.1376 1.6384 1.024 32.1024 19.8656 53.9136 32.6144 5.8368 3.4304 11.1616 6.4512 15.2576 8.6528 1.3824 0.768 2.7136 1.4336 4.0448 2.048 0.4096 0.2048 0.8192 0.3584 1.2288 0.5632 0.8704 0.4096 1.7408 0.8192 2.56 1.1776 0.4608 0.2048 0.9216 0.3584 1.3312 0.5632 0.768 0.3072 1.4848 0.6144 2.2016 0.8704 0.4608 0.1536 0.9216 0.3072 1.3312 0.4608 0.6656 0.256 1.3824 0.4608 1.9968 0.6656 0.4096 0.1536 0.8704 0.256 1.28 0.3584 0.6656 0.2048 1.28 0.3584 1.9456 0.512 0.4096 0.1024 0.8192 0.2048 1.1776 0.256 0.6144 0.1536 1.2288 0.256 1.8432 0.3584l1.0752 0.1536c0.6144 0.1024 1.2288 0.1536 1.8432 0.2048 0.3072 0.0512 0.6656 0.0512 0.9728 0.1024 0.6656 0.0512 1.28 0.0512 1.9456 0.0512h0.768c1.3824 0 2.7648-0.1024 4.1472-0.256 0.2048 0 0.3584-0.0512 0.5632-0.0512 1.3312-0.1536 2.6624-0.4096 3.9936-0.6656 0.1536-0.0512 0.3584-0.1024 0.512-0.1024 1.3312-0.3072 2.7136-0.6144 4.096-1.024a1.5872 1.5872 0 0 1 0.4096-0.1024c1.4336-0.4096 2.8672-0.8192 4.352-1.3312l1.6896-0.512c0.4096-0.1536 0.8192-0.256 1.2288-0.4608 5.3248-2.2016 22.2208-7.3216 45.2096-13.9776 75.1104-21.7088 215.296-59.4432 230.5024-62.6176 1.1776-0.256 2.304-0.512 3.3792-0.8704 3.7376 6.1952 6.1952 11.4688 6.8096 13.6704 0.3072 4.4032 2.5088 8.448 6.0416 11.1104 11.1104 8.448 17.1008 18.5856 27.0336 35.4304 3.6352 6.1952 7.7824 13.2096 12.6976 21.0432 2.304 3.6864 6.0928 6.1952 10.3936 6.9632 32 5.4784 49.664 25.5488 58.7776 40.96-84.7872 1.28-382.7712 5.1712-540.928-0.3584-4.9664-0.1536-9.9328-0.3584-14.848-0.6144l-3.584-0.1536c-3.7888-0.1536-7.5264-0.3584-11.264-0.5632-1.28-0.0512-2.5088-0.1536-3.7888-0.2048l-10.9568-0.6144c-1.28-0.1024-2.6112-0.1536-3.8912-0.256-3.584-0.256-7.168-0.4608-10.7008-0.7168l-4.1472-0.3072-10.24-0.768c-1.5872-0.1024-3.1232-0.256-4.7104-0.3584l-9.3696-0.768c-1.8944-0.1536-3.7376-0.3072-5.632-0.512-2.6624-0.256-5.3248-0.4608-7.936-0.7168-2.4064-0.2048-4.864-0.4608-7.2704-0.7168-1.8944-0.2048-3.84-0.3584-5.7344-0.5632-3.1232-0.3072-6.2464-0.6656-9.3696-0.9728l-2.9184-0.3072c-100.352-10.8544-183.2448-28.0064-224.6144-38.9632-0.4608-0.1024-0.8704-0.1536-1.3312-0.256-6.2976-1.6896-11.9808-3.2768-16.8448-4.8128 12.6976-13.312 34.4576-30.2592 59.904-48.128z m807.68 204.3392c-3.4816 2.9184-5.4784 7.2192-5.4784 11.776v2.1504H339.0976c-140.7488-14.7968-205.9264-83.3024-233.728-127.3856 19.2512 4.352 40.8064 8.704 64 12.8512 0.3584 0.0512 0.7168 0.1536 1.1264 0.2048 2.4576 0.4608 4.9152 0.8704 7.3728 1.28 64.3072 11.264 143.616 21.4528 227.3792 25.6l3.328 0.1536a1426.432 1426.432 0 0 0 34.6624 1.3312l5.1712 0.1536c2.7648 0.1024 5.5808 0.1536 8.3968 0.256 2.3552 0.0512 4.7616 0.1024 7.168 0.2048l6.1952 0.1536c3.1232 0.0512 6.2464 0.1536 9.472 0.2048 0.6656 0 1.3824 0.0512 2.048 0.0512 155.9552 3.2256 385.2288 0.512 477.184-0.8192-2.4576 47.9232-28.3136 70.8608-29.44 71.8336zM285.6448 760.2176H89.9072c-8.4992 0-15.36-6.8608-15.36-15.36s6.8608-15.36 15.36-15.36h195.7376c8.4992 0 15.36 6.8608 15.36 15.36s-6.912 15.36-15.36 15.36zM717.3632 861.5936H187.7504c-8.4992 0-15.36-6.8608-15.36-15.36s6.8608-15.36 15.36-15.36h529.6128c8.4992 0 15.36 6.8608 15.36 15.36s-6.8608 15.36-15.36 15.36zM976.2304 781.7216h-384.9728c-8.4992 0-15.36-6.8608-15.36-15.36s6.8608-15.36 15.36-15.36h384.9728c8.4992 0 15.36 6.8608 15.36 15.36s-6.912 15.36-15.36 15.36z" fill="#333333" p-id="22639"></path></svg>