<svg t="1650357008490" class="icon" viewBox="0 0 1024 1024" version="1.1" xmlns="http://www.w3.org/2000/svg" p-id="22823" width="200" height="200"><path d="M646.803911 173.351822a56.888889 56.888889 0 0 1 56.888889 56.888889v37.023289a56.888889 56.888889 0 0 1-56.888889 56.888889H377.196089a56.888889 56.888889 0 0 1-56.888889-56.888889V230.240711a56.888889 56.888889 0 0 1 56.888889-56.888889h269.607822z m-11.389155 68.266667H388.573867v14.256355h246.840889V241.618489z" fill="#F5D26E" p-id="22824"></path><path d="M159.288889 280.701156m113.777778 0l477.866666 0q113.777778 0 113.777778 113.777777l0 342.402845q0 113.777778-113.777778 113.777778l-477.866666 0q-113.777778 0-113.777778-113.777778l0-342.402845q0-113.777778 113.777778-113.777777Z" fill="#E4A055" p-id="22825"></path><path d="M159.288889 382.737067h705.422222v122.88H159.288889z" fill="#F8B95A" p-id="22826"></path><path d="M159.288889 280.701156m102.240711 0l500.9408 0q102.240711 0 102.240711 102.240711l0-0.011378q0 102.240711-102.240711 102.240711l-500.9408 0q-102.240711 0-102.240711-102.240711l0 0.011378q0-102.240711 102.240711-102.240711Z" fill="#F5D26E" p-id="22827"></path><path d="M357.364622 485.1712m-54.112711 0a54.112711 54.112711 0 1 0 108.225422 0 54.112711 54.112711 0 1 0-108.225422 0Z" fill="#F8B95A" p-id="22828"></path><path d="M666.635378 485.1712m-54.112711 0a54.112711 54.112711 0 1 0 108.225422 0 54.112711 54.112711 0 1 0-108.225422 0Z" fill="#F8B95A" p-id="22829"></path></svg>