<svg t="1650357026265" class="icon" viewBox="0 0 1024 1024" version="1.1" xmlns="http://www.w3.org/2000/svg" p-id="23028" width="200" height="200"><path d="M514.027102 521.236898m-501.55102 0a501.55102 501.55102 0 1 0 1003.10204 0 501.55102 501.55102 0 1 0-1003.10204 0Z" fill="#1677FF" p-id="23029"></path><path d="M387.657143 421.281959l226.324898 226.324898-119.348245 119.327347a160.036571 160.036571 0 1 1-226.324898-226.324898l119.327347-119.327347z m118.846694 205.468735a8.003918 8.003918 0 0 0-11.284898 0.041796L398.942041 723.069388a8.003918 8.003918 0 0 0 0.083592 11.305796l24.095347 23.802775c3.134694 3.092898 8.171102 3.072 11.284898-0.041796l96.297795-96.297796a8.003918 8.003918 0 0 0-0.083591-11.305796z m253.220571-351.211102a160.036571 160.036571 0 0 1 0 226.324898l-119.327347 119.327347-226.324898-226.324898 119.327347-119.327347a160.036571 160.036571 0 0 1 226.324898 0z" fill="#FFFFFF" p-id="23030"></path></svg>