<svg t="1650357062579" class="icon" viewBox="0 0 1024 1024" version="1.1" xmlns="http://www.w3.org/2000/svg" p-id="24525" width="200" height="200"><path d="M947.36 582.21l-64.55-212.48c-12.59-41.42-42.34-75.88-83.79-97.03-40.67-20.75-87.95-26.23-133.16-15.46-24.31 5.79-46.45 15.91-65.93 30.12H426.07c-19.49-14.21-41.63-24.32-65.93-30.12-45.2-10.78-92.49-5.29-133.15 15.46-41.45 21.14-71.21 55.6-83.79 97.03L78.64 582.21c-11.84 38.96-7.03 80.14 13.53 115.97 23 40.09 63.96 69.7 112.38 81.25 14.95 3.56 29.34 5.31 43.09 5.31 67.27 0 118.88-41.88 141.95-117.8l0.13-0.43h246.83l0.13 0.43c12.97 42.69 35.55 75.75 65.29 95.61 32.75 21.87 74.07 27.7 119.49 16.88 48.42-11.54 89.38-41.15 112.38-81.25 20.55-35.83 25.36-77.01 13.52-115.97zM324 564.29c-61.69 0-111.87-50.19-111.87-111.87 0-61.69 50.19-111.87 111.87-111.87s111.87 50.19 111.87 111.87c0 61.68-50.19 111.87-111.87 111.87z m344.61-39.96c-19.86 0-35.96-16.1-35.96-35.96s16.1-35.96 35.96-35.96 35.96 16.1 35.96 35.96-16.1 35.96-35.96 35.96z m17.98-131.85c0-19.86 16.1-35.96 35.96-35.96s35.96 16.1 35.96 35.96-16.1 35.96-35.96 35.96-35.96-16.1-35.96-35.96z m89.89 131.85c-19.86 0-35.96-16.1-35.96-35.96s16.1-35.96 35.96-35.96 35.96 16.1 35.96 35.96-16.1 35.96-35.96 35.96z" fill="#FF8F3B" p-id="24526"></path><path d="M324 452.41m-55.94 0a55.94 55.94 0 1 0 111.88 0 55.94 55.94 0 1 0-111.88 0Z" fill="#FF8F3B" p-id="24527"></path><path d="M324 452.41m-55.94 0a55.94 55.94 0 1 0 111.88 0 55.94 55.94 0 1 0-111.88 0Z" fill="#FF4A4A" p-id="24528"></path></svg>