<svg t="1650357104757" class="icon" viewBox="0 0 1024 1024" version="1.1" xmlns="http://www.w3.org/2000/svg" p-id="29483" width="200" height="200"><path d="M868.693333 588.458667v181.248c0 45.056-36.522667 81.578667-81.578666 81.578666H236.885333c-45.056 0-81.578667-36.522667-81.578666-81.578666v-181.248c0-45.056 36.522667-81.578667 81.578666-81.578667h212.650667c0 34.474667 27.989333 62.122667 62.464 62.122667s62.464-27.989333 62.464-62.122667h212.650667c45.056 0 81.578667 36.522667 81.578666 81.578667zM441.344 203.093333l11.605333 65.194667-212.650666 38.229333L228.693333 241.322667c-4.437333-25.258667 12.288-49.152 37.205334-53.589334l121.856-21.845333c25.258667-4.437333 49.152 12.288 53.589333 37.205333zM472.405333 477.866667H283.648c-7.509333 0-13.653333-5.12-15.018667-12.629334l-24.234666-135.850666L457.386667 291.157333l30.037333 168.618667c1.706667 9.557333-5.461333 18.090667-15.018667 18.090667zM768.341333 176.810667l-46.08 288.085333c-1.024 7.509333-7.509333 12.970667-15.018666 12.970667H518.826667c-9.216 0-16.384-8.533333-15.018667-17.749334l50.858667-317.44c4.437333-26.624 29.354667-44.714667 55.978666-40.277333l117.418667 18.773333c26.282667 4.096 44.373333 29.354667 40.277333 55.637334z" fill="#FCA235" opacity=".6" p-id="29484"></path><path d="M768.341333 176.810667l-46.08 288.085333c-1.024 7.509333-7.509333 12.970667-15.018666 12.970667H518.826667c-9.216 0-16.384-8.533333-15.018667-17.749334l50.858667-317.44c4.437333-26.624 29.354667-44.714667 55.978666-40.277333l117.418667 18.773333c26.282667 4.096 44.373333 29.354667 40.277333 55.637334z" fill="#FCA235" opacity=".6" p-id="29485"></path></svg>