<svg t="1650356590213" class="icon" viewBox="0 0 1024 1024" version="1.1" xmlns="http://www.w3.org/2000/svg" p-id="12140" width="200" height="200"><path d="M192 832h640v85.333333H192zM192 106.666667h640v85.333333H192z" fill="#48DAE0" p-id="12141"></path><path d="M853.333333 917.333333a42.794667 42.794667 0 0 1 42.666667 42.666667 42.986667 42.986667 0 0 1-42.666667 42.666667H170.666667a42.794667 42.794667 0 0 1-42.666667-42.666667 42.986667 42.986667 0 0 1 42.666667-42.666667h682.666666zM853.333333 21.333333a42.794667 42.794667 0 0 1 42.666667 42.666667 41.706667 41.706667 0 0 1-12.586667 30.08A41.706667 41.706667 0 0 1 853.333333 106.666667H170.666667a42.794667 42.794667 0 0 1-42.666667-42.666667 41.706667 41.706667 0 0 1 12.586667-30.08A41.706667 41.706667 0 0 1 170.666667 21.333333z" fill="#5B87F5" p-id="12142"></path><path d="M832 192v640H192V192z m-64 320a256 256 0 1 0-256 256 256 256 0 0 0 256-256z" fill="#CCD3EB" p-id="12143"></path><path d="M883.413333 51.413333A41.706667 41.706667 0 0 1 853.333333 64H170.666667a42.666667 42.666667 0 0 1-36.714667-21.333333A41.877333 41.877333 0 0 0 128 64a42.794667 42.794667 0 0 0 42.666667 42.666667h682.666666a41.706667 41.706667 0 0 0 30.08-12.586667A41.792 41.792 0 0 0 890.048 42.666667a41.344 41.344 0 0 1-6.634667 8.746666zM883.413333 947.413333A41.706667 41.706667 0 0 1 853.333333 960H170.666667a42.666667 42.666667 0 0 1-36.714667-21.333333A41.877333 41.877333 0 0 0 128 960a42.794667 42.794667 0 0 0 42.666667 42.666667h682.666666a42.325333 42.325333 0 0 0 36.714667-64 41.344 41.344 0 0 1-6.634667 8.746666z" fill="#4C64E0" p-id="12144"></path><path d="M832 149.333333V106.666667H192v85.333333h106.666667a42.666667 42.666667 0 0 1 42.666666-42.666667zM832 874.666667v42.666666H192v-85.333333h106.666667a42.666667 42.666667 0 0 0 42.666666 42.666667z" fill="#00ABA5" p-id="12145"></path><path d="M192 192h106.666667v640H192z" fill="#ADB5D5" p-id="12146"></path><path d="M746.666667 192h85.333333v640h-85.333333z" fill="#F0F3FF" p-id="12147"></path><path d="M746.666667 832h85.333333v42.666667h-85.333333zM746.666667 149.333333h85.333333v42.666667h-85.333333z" fill="#70FFEF" p-id="12148"></path><path d="M512 512m-277.333333 0a277.333333 277.333333 0 1 0 554.666666 0 277.333333 277.333333 0 1 0-554.666666 0Z" fill="#96A1C3" p-id="12149"></path><path d="M512 256a256 256 0 1 1-256 256 256 256 0 0 1 256-256z" fill="#6B95FF" p-id="12150"></path><path d="M682.666667 490.666667h-110.592a63.189333 63.189333 0 0 0-10.176-18.24l58.56-93.696a21.333333 21.333333 0 0 0-6.741334-29.397334 194.133333 194.133333 0 0 0-203.434666 0 21.333333 21.333333 0 0 0-6.741334 29.397334l58.56 93.696a63.189333 63.189333 0 0 0-10.176 18.24H341.333333a21.333333 21.333333 0 0 0-21.333333 21.333333 216.298667 216.298667 0 0 0 55.466667 146.517333 208.341333 208.341333 0 0 0 63.104 43.306667A21.077333 21.077333 0 0 0 448 704a21.333333 21.333333 0 0 0 20.032-14.016l41.664-114.218667c0.768 0 1.514667 0.234667 2.304 0.234667s1.536-0.213333 2.304-0.234667l41.664 114.218667A21.333333 21.333333 0 0 0 576 704a21.077333 21.077333 0 0 0 9.344-2.133333 207.978667 207.978667 0 0 0 63.189333-43.370667A216.213333 216.213333 0 0 0 704 512a21.333333 21.333333 0 0 0-21.333333-21.333333z" fill="#586889" p-id="12151"></path><path d="M534.613333 475.946667a42.666667 42.666667 0 1 1-45.226666 0 41.962667 41.962667 0 0 1 45.226666 0z" fill="#FFD747" p-id="12152"></path><path d="M602.453333 367.36l-67.84 108.586667a41.962667 41.962667 0 0 0-45.226666 0l-67.84-108.586667a170.197333 170.197333 0 0 1 180.906666 0zM495.786667 551.466667L448 682.666667a193.877333 193.877333 0 0 1-56.746667-38.613334A195.818667 195.818667 0 0 1 341.333333 512h128a43.050667 43.050667 0 0 0 26.453334 39.466667zM528.213333 551.466667A43.050667 43.050667 0 0 0 554.666667 512h128a195.818667 195.818667 0 0 1-49.92 132.053333A193.877333 193.877333 0 0 1 576 682.666667z" fill="#FFFF9C" p-id="12153"></path><path d="M512 768a256 256 0 0 1-81.770667-498.432 270.528 270.528 0 0 1 13.632-26.112 277.162667 277.162667 0 1 0 306.922667 409.109333 278.954667 278.954667 0 0 1-28.778667 5.674667A255.552 255.552 0 0 1 512 768z" fill="#96A1C3" p-id="12154"></path><path d="M256 512a256 256 0 0 0 466.005333 146.24 252.288 252.288 0 0 1-74.026666 0.704 208.853333 208.853333 0 0 1-62.634667 42.88A21.077333 21.077333 0 0 1 576 704a21.333333 21.333333 0 0 1-20.032-14.016l-27.52-75.477333a274.24 274.24 0 0 1-25.728-19.669334l-34.688 95.146667A21.333333 21.333333 0 0 1 448 704a21.077333 21.077333 0 0 1-9.344-2.133333 208.341333 208.341333 0 0 1-63.104-43.306667A216.298667 216.298667 0 0 1 320 512a21.333333 21.333333 0 0 1 21.333333-21.333333h85.333334a276.373333 276.373333 0 0 1-21.333334-106.666667v-2.133333l-1.898666-3.050667a21.056 21.056 0 0 1 3.754666-26.56 274.837333 274.837333 0 0 1 22.933334-82.602667A255.808 255.808 0 0 0 256 512z" fill="#5369F5" p-id="12155"></path><path d="M576 682.666667l-18.773333-51.52a276.373333 276.373333 0 0 1-28.778667-16.64l27.52 75.477333A21.333333 21.333333 0 0 0 576 704a21.077333 21.077333 0 0 0 9.344-2.133333 208.853333 208.853333 0 0 0 62.634667-42.88 272.938667 272.938667 0 0 1-26.304-4.544A233.429333 233.429333 0 0 1 576 682.666667zM485.696 579.2L448 682.666667a193.877333 193.877333 0 0 1-56.746667-38.613334A195.818667 195.818667 0 0 1 341.333333 512h95.424c-3.626667-6.954667-7.082667-14.037333-10.112-21.333333H341.333333a21.333333 21.333333 0 0 0-21.333333 21.333333 216.298667 216.298667 0 0 0 55.466667 146.517333 208.341333 208.341333 0 0 0 63.104 43.306667A21.077333 21.077333 0 0 0 448 704a21.333333 21.333333 0 0 0 20.032-14.016l34.688-95.146667a281.493333 281.493333 0 0 1-17.024-15.637333zM403.541333 378.730667l1.898667 3.050666a282.496 282.496 0 0 1 1.856-29.610666 21.056 21.056 0 0 0-3.754667 26.56z" fill="#2B3E5B" p-id="12156"></path><path d="M391.253333 644.053333A193.877333 193.877333 0 0 0 448 682.666667l37.696-103.466667A278.677333 278.677333 0 0 1 436.757333 512H341.333333a195.818667 195.818667 0 0 0 49.92 132.053333zM576 682.666667a233.429333 233.429333 0 0 0 45.674667-28.266667 275.754667 275.754667 0 0 1-64.448-23.253333z" fill="#FFD747" p-id="12157"></path><path d="M642.119169 447.178124a48.768 35.029333 44.98 1 0 49.521662-49.556248 48.768 35.029333 44.98 1 0-49.521662 49.556248Z" fill="#F6FAFD" p-id="12158"></path><path d="M697.857426 247.59759a12.245333 8.810667 44.98 1 0 12.455814-12.464513 12.245333 8.810667 44.98 1 0-12.455814 12.464513Z" fill="#F6FAFD" p-id="12159"></path><path d="M853.333333 128H298.666667V85.333333h554.666666a21.333333 21.333333 0 0 0 0-42.666666H170.666667a21.333333 21.333333 0 0 0 0 42.666666h85.333333v42.666667H170.666667a64 64 0 0 1 0-128h682.666666a64 64 0 0 1 0 128zM853.333333 1024H170.666667a64 64 0 0 1 0-128h554.666666v42.666667H170.666667a21.333333 21.333333 0 0 0 0 42.666666h682.666666a21.333333 21.333333 0 0 0 0-42.666666h-85.333333v-42.666667h85.333333a64 64 0 0 1 0 128z" fill="#231F20" p-id="12160"></path><path d="M725.333333 938.666667H192a21.333333 21.333333 0 0 1-21.333333-21.333334v-149.333333h42.666666v128h512zM832 938.666667h-64v-42.666667h42.666667V298.666667h42.666666v618.666666a21.333333 21.333333 0 0 1-21.333333 21.333334zM853.333333 256h-42.666666V128H298.666667V85.333333h533.333333a21.333333 21.333333 0 0 1 21.333333 21.333334zM213.333333 640H170.666667V106.666667a21.333333 21.333333 0 0 1 21.333333-21.333334h64v42.666667h-42.666667zM170.666667 682.666667h42.666666v42.666666H170.666667z" fill="#231F20" p-id="12161"></path><path d="M512 789.333333a277.333333 277.333333 0 1 1 277.333333-277.333333 277.653333 277.653333 0 0 1-277.333333 277.333333z m0-512a234.666667 234.666667 0 1 0 234.666667 234.666667 234.944 234.944 0 0 0-234.666667-234.666667z" fill="#231F20" p-id="12162"></path><path d="M495.402667 572.650667a21.461333 21.461333 0 0 1-8.213334-1.642667 35.2 35.2 0 0 1-2.24-1.088 21.333333 21.333333 0 0 1 17.941334-38.677333c0.661333 0.277333 1.514667 0.704 2.24 1.088a21.333333 21.333333 0 0 1-9.728 40.32z" fill="#231F20" p-id="12163"></path><path d="M528.597333 572.650667a21.333333 21.333333 0 0 1-9.685333-40.341334l2.133333-1.066666a21.333333 21.333333 0 0 1 27.882667 11.477333 21.056 21.056 0 0 1 1.664 8.192 21.333333 21.333333 0 0 1-11.648 19.029333 98.986667 98.986667 0 0 1-2.133333 1.066667 21.461333 21.461333 0 0 1-8.213334 1.642667zM552.64 487.232l-36.266667-22.634667 55.808-89.130666a149.76 149.76 0 0 0-120.362666 0l55.701333 89.130666-36.266667 22.634667-67.818666-108.501333a21.333333 21.333333 0 0 1 6.741333-29.397334 194.133333 194.133333 0 0 1 203.434667 0 21.333333 21.333333 0 0 1 6.741333 29.397334z" fill="#231F20" p-id="12164"></path><path d="M448 704a21.077333 21.077333 0 0 1-9.344-2.133333 208.341333 208.341333 0 0 1-63.104-43.306667A216.298667 216.298667 0 0 1 320 512a21.333333 21.333333 0 0 1 21.333333-21.333333h128v42.666666h-105.429333a171.52 171.52 0 0 0 43.157333 96.426667 129.642667 129.642667 0 0 0 29.312 22.485333l38.272-104.938666 40.085334 14.634666-46.698667 128A21.333333 21.333333 0 0 1 448 704z" fill="#231F20" p-id="12165"></path><path d="M576 704a21.333333 21.333333 0 0 1-20.032-14.016l-46.698667-128 40.085334-14.634667 38.272 104.938667a129.045333 129.045333 0 0 0 29.312-22.506667A171.392 171.392 0 0 0 660.096 533.333333H554.666667v-42.666666h128a21.333333 21.333333 0 0 1 21.333333 21.333333 216.213333 216.213333 0 0 1-55.466667 146.496 207.978667 207.978667 0 0 1-63.189333 43.370667 21.077333 21.077333 0 0 1-9.344 2.133333z" fill="#231F20" p-id="12166"></path><path d="M512 576a64 64 0 1 1 64-64 64 64 0 0 1-64 64z m0-85.333333a21.333333 21.333333 0 1 0 21.333333 21.333333 21.333333 21.333333 0 0 0-21.333333-21.333333zM192 170.666667h640v42.666666H192zM192 810.666667h640v42.666666H192z" fill="#231F20" p-id="12167"></path></svg>