<svg t="1650356614269" class="icon" viewBox="0 0 1024 1024" version="1.1" xmlns="http://www.w3.org/2000/svg" p-id="12351" width="200" height="200"><path d="M243.2 846.628571c-40.228571 0-73.142857-32.914286-73.142857-73.142857v-566.857143c0-40.228571 32.914286-73.142857 73.142857-73.142857h7.314286l-9.142857-1.828571c-34.742857-7.314286-67.657143 14.628571-74.971429 49.371428l-128 603.428572c-7.314286 34.742857 14.628571 67.657143 49.371429 74.971428L786.285714 1009.371429c34.742857 7.314286 67.657143-14.628571 74.971429-49.371429l23.771428-113.371429H243.2z" fill="#C4E4FF" p-id="12352"></path><path d="M800.914286 1018.514286c-5.485714 0-10.971429 0-14.628572-1.828572L85.942857 868.571429C45.714286 859.428571 21.942857 821.028571 29.257143 782.628571l128-603.428571c3.657143-18.285714 14.628571-34.742857 31.085714-45.714286 16.457143-10.971429 36.571429-14.628571 54.857143-10.971428l9.142857 1.828571-1.828571 18.285714h-7.314286c-34.742857 0-64 29.257143-64 64v566.857143c0 34.742857 29.257143 64 64 64H897.828571l-25.6 124.342857c-3.657143 18.285714-14.628571 34.742857-31.085714 45.714286-12.8 7.314286-25.6 10.971429-40.228571 10.971429z m-12.8-18.285715h1.828571c29.257143 5.485714 58.514286-12.8 64-42.057142l21.942857-100.571429H243.2c-45.714286 0-82.285714-36.571429-82.285714-82.285714V246.857143L47.542857 784.457143c-5.485714 29.257143 12.8 58.514286 42.057143 65.828571l698.514286 149.942857z" fill="#46AAFF" p-id="12353"></path><path d="M956.342857 287.085714v230.4l32.914286-159.085714c7.314286-31.085714-7.314286-58.514286-32.914286-71.314286z" fill="#C4E4FF" p-id="12354"></path><path d="M965.485714 517.485714l-18.285714-1.828571V272.457143l12.8 7.314286c29.257143 14.628571 45.714286 47.542857 38.4 80.457142l-32.914286 157.257143z m0-213.942857v124.342857l16.457143-74.971428c3.657143-16.457143-1.828571-36.571429-16.457143-49.371429z" fill="#46AAFF" p-id="12355"></path><path d="M883.2 855.771429h-640c-45.714286 0-82.285714-36.571429-82.285714-82.285715v-566.857143c0-45.714286 36.571429-82.285714 82.285714-82.285714H475.428571v18.285714H243.2c-34.742857 0-64 29.257143-64 64v566.857143c0 34.742857 29.257143 64 64 64h640c34.742857 0 64-29.257143 64-64v-566.857143c0-34.742857-29.257143-64-64-64H650.971429v-18.285714h232.228571c45.714286 0 82.285714 36.571429 82.285714 82.285714v566.857143c0 45.714286-36.571429 82.285714-82.285714 82.285715z" fill="#46AAFF" p-id="12356"></path><path d="M563.2 208.457143c-54.857143 0-100.571429-45.714286-100.571429-100.571429S508.342857 7.314286 563.2 7.314286s100.571429 45.714286 100.571429 100.571428-45.714286 100.571429-100.571429 100.571429z m0-182.857143c-45.714286 0-82.285714 36.571429-82.285714 82.285714s36.571429 82.285714 82.285714 82.285715 82.285714-36.571429 82.285714-82.285715-38.4-82.285714-82.285714-82.285714z" fill="#46AAFF" p-id="12357"></path><path d="M908.8 700.342857H610.742857l38.4-54.857143h241.371429l1.828571 3.657143s21.942857 34.742857 23.771429 34.742857l9.142857 14.628572-16.457143 1.828571z m-263.314286-18.285714h246.857143c-3.657143-3.657143-7.314286-10.971429-10.971428-18.285714H658.285714l-12.8 18.285714zM892.342857 630.857143H647.314286l3.657143-5.485714 27.428571-45.714286 1.828571-3.657143H859.428571l32.914286 54.857143z m-212.114286-18.285714h181.028572l-10.971429-18.285715h-159.085714c-1.828571 3.657143-7.314286 10.971429-10.971429 18.285715zM853.942857 557.714286h-171.885714l5.485714-12.8s0-1.828571 1.828572-1.828572l20.114285-38.4h115.2l21.942857 38.4c0 1.828571 1.828571 1.828571 1.828572 3.657143l5.485714 10.971429z m-142.628571-18.285715h113.371428l-9.142857-18.285714h-93.257143l-10.971428 18.285714zM768 484.571429c-45.714286 0-82.285714-36.571429-82.285714-82.285715s36.571429-82.285714 82.285714-82.285714 82.285714 36.571429 82.285714 82.285714-36.571429 82.285714-82.285714 82.285715z m0-146.285715c-34.742857 0-64 29.257143-64 64s29.257143 64 64 64 64-29.257143 64-64-27.428571-64-64-64z" fill="#FBAE2A" p-id="12358"></path><path d="M265.142857 369.371429h287.085714v18.285714H265.142857zM265.142857 506.514286h213.942857v18.285714H265.142857zM265.142857 643.657143h287.085714v18.285714H265.142857z" fill="#46AAFF" p-id="12359"></path></svg>