<svg t="1650356812975" class="icon" viewBox="0 0 1024 1024" version="1.1" xmlns="http://www.w3.org/2000/svg" p-id="19030" width="200" height="200"><path d="M406.52 257.15h323c92.03 0 166.64 74.61 166.64 166.64V844.84c0 38.48-41.66 62.53-74.98 43.29l-150.26-86.75h-264.4c-92.03 0-166.64-74.61-166.64-166.64V423.79c0.01-92.03 74.61-166.64 166.64-166.64z" fill="#FFB0B0" p-id="19031"></path><path d="M617.48 129.1h-323c-92.03 0-166.64 74.61-166.64 166.64V716.79c0 38.48 41.66 62.53 74.98 43.29l150.26-86.75h264.39c92.03 0 166.64-74.61 166.64-166.64V295.73c0-92.03-74.6-166.63-166.63-166.63z" fill="#FF7B7B" p-id="19032"></path><path d="M445.71 549.64m-43.65 0a43.65 43.65 0 1 0 87.3 0 43.65 43.65 0 1 0-87.3 0Z" fill="#FFFBE8" p-id="19033"></path><path d="M561.63 271.18c-13.74-36.24-48.68-62.05-89.73-62.05-24.38 0-46.57 9.16-63.51 24.13-5.65 4.99-10.72 10.61-15.07 16.8-8.37 11.9-14.07 25.78-16.34 40.8-0.61 1.77-1.13 3.6-1.13 5.58v34.92c0 9.64 7.82 17.46 17.46 17.46s17.46-7.82 17.46-17.46v-8.73c0-19.15 12.41-35.24 29.56-41.12 4.44-1.53 9.13-2.53 14.1-2.53 24.11 0 43.65 19.54 43.65 43.65 0 14.88-7.47 27.98-18.84 35.86-6.1 6.75-14.26 14.42-24.99 23.23-5.57 4.61-10.33 9.2-14.67 13.8-6.9 7.31-12.43 14.61-16.19 21.89-6.12 11.87-9.18 26.19-9.18 42.99v22.15h62.19V466.3c0-10.67 2.31-19.83 6.95-27.45 4.63-7.61 15.35-18.09 32.15-31.45 19.94-16.17 34-31.87 42.17-47.12 8.16-15.23 12.24-31.87 12.24-49.93 0.02-14.67-2.85-27.67-8.28-39.17z" fill="#FFFBE8" p-id="19034"></path></svg>