<svg t="1650444292170" class="icon" viewBox="0 0 1024 1024" version="1.1" xmlns="http://www.w3.org/2000/svg" p-id="1789" width="200" height="200"><path d="M995.939462 314.569016L703.259415 21.888968c-28.631744-28.631744-44.538268-28.631744-69.988707-3.181305C426.485892 222.311174 222.88238 425.914686 19.278869 632.699502c-22.269134 22.269134-25.450439 44.538268 0 69.988707 101.801756 98.620451 200.422206 200.422206 302.223962 302.223962 9.543915 9.543915 19.087829 15.906524 31.813049 15.906524 19.087829 0 28.631744-12.725219 41.356963-22.269134l604.447924-604.447924c25.450439-34.994353 25.450439-47.719573-3.181305-79.532621zM890.956402 387.739027L385.128928 893.566501c-25.450439 25.450439-44.538268 25.450439-69.988707 0l-190.878291-190.878292c-19.087829-19.087829-28.631744-38.175658-9.543915-60.444793 15.906524-22.269134 28.631744-31.813049 50.900878-6.362609 28.631744 31.813049 60.444792 60.444792 89.076536 92.257841 12.725219 12.725219 19.087829 15.906524 34.994354 0 34.994353-34.994353 34.994353-34.994353 0-69.988707L210.157161 578.617319c-12.725219-12.725219-15.906524-19.087829 0-34.994353 38.175658-38.175658 34.994353-38.175658 73.170012 0 12.725219 12.725219 28.631744 25.450439 38.175658 38.175658 22.269134 28.631744 38.175658 28.631744 60.444793 0 15.906524-19.087829 22.269134-28.631744 0-44.538268-15.906524-12.725219-31.813049-31.813049-47.719573-44.538268-38.175658-38.175658-38.175658-38.175658 3.181304-76.351317 12.725219-9.543915 15.906524-12.725219 28.631744 0 28.631744 31.813049 60.444792 60.444792 89.076536 92.257841 19.087829 19.087829 31.813049 28.631744 54.082183 3.181305 19.087829-22.269134 31.813049-31.813049 3.181305-57.263488-31.813049-25.450439-57.263488-57.263488-89.076536-85.895231-15.906524-15.906524-12.725219-22.269134 0-34.994353 34.994353-31.813049 31.813049-34.994353 66.807402 0l57.263487 57.263487c9.543915 12.725219 19.087829 9.543915 28.631744 0 41.356963-34.994353 41.356963-34.994353 0-73.170012-15.906524-15.906524-31.813049-34.994353-50.900878-50.900877-25.450439-22.269134-3.181305-31.813049 9.543915-41.356964 12.725219-9.543915 19.087829-38.175658 44.538268-12.725219l95.439146 95.439146c25.450439 31.813049 34.994353 0 50.900878-9.543915 19.087829-12.725219 25.450439-25.450439 3.181305-44.538268-31.813049-25.450439-57.263488-54.082183-85.895232-85.895231-9.543915-9.543915-28.631744-15.906524-19.087829-28.631744 9.543915-15.906524 22.269134-31.813049 44.538268-31.813049 15.906524 0 25.450439 6.36261 34.994354 15.906525l190.878292 190.878292c25.450439 28.631744 25.450439 47.719573-3.181305 73.170011z" fill="#515151" p-id="1790"></path></svg>