<svg t="1650354196000" class="icon" viewBox="0 0 1024 1024" version="1.1" xmlns="http://www.w3.org/2000/svg" p-id="744" width="200" height="200"><path d="M511.752 70.5c-86.605 0-156.835 69.734-156.835 155.747l0 273.812c0 86.013 70.23 155.748 156.835 155.748 86.602 0 156.832-69.735 156.832-155.748L668.584 226.247C668.584 140.234 598.354 70.5 511.752 70.5L511.752 70.5 511.752 70.5zM243.854 461.102c-18.051 0-32.649 14.496-32.649 32.451 0 2.269 0.197 4.436 0.689 6.506l-0.689 0c0 151.605 113.922 276.578 261.386 295.713l0 80.687-52.275 0c-21.702 0-39.257 17.458-39.257 38.964 0 21.499 17.555 38.957 39.257 38.957l182.969 0c21.701 0 39.256-17.458 39.256-38.957 0-21.506-17.555-38.964-39.256-38.964L551.01 876.459l0-80.687c143.119-18.543 254.383-137.002 260.691-282.688 0.396-2.072 0.695-4.243 0.695-6.512 0-0.79-0.197-1.479-0.197-2.167 0-1.483 0.197-2.86 0.197-4.345l-0.695 0c-3.058-14.795-16.172-25.94-32.057-25.94-15.782 0-28.999 11.145-32.057 25.94l-0.688 0c0 129.019-105.344 233.572-235.249 233.572-129.903 0-235.249-104.554-235.249-233.572l-0.689 0c0.396-2.07 0.689-4.237 0.689-6.506C276.503 475.598 261.906 461.102 243.854 461.102L243.854 461.102 243.854 461.102zM243.854 461.102" p-id="745" fill="#707070"></path></svg>