<svg t="1650443378337" class="icon" viewBox="0 0 1024 1024" version="1.1" xmlns="http://www.w3.org/2000/svg" p-id="28261" width="200" height="200"><path d="M518.0416 516.3008m-451.1744 0a451.1744 451.1744 0 1 0 902.3488 0 451.1744 451.1744 0 1 0-902.3488 0Z" fill="#aaaaf8" p-id="28262"></path><path d="M322.4064 473.0368h377.7024c15.1552 0 28.928-8.9088 35.072-22.784 6.144-13.8752 3.584-30.0544-6.5536-41.3184l-82.5344-91.5968a38.38976 38.38976 0 0 0-54.2208-2.816c-15.7696 14.1824-16.9984 38.5024-2.816 54.2208l24.7808 27.4944H322.4064c-21.1968 0-38.4 17.2032-38.4 38.4s17.2032 38.4 38.4 38.4zM700.1088 559.5136H322.4064c-15.1552 0-28.928 8.9088-35.072 22.784-6.144 13.8752-3.584 30.0544 6.5536 41.3184l82.5344 91.5968a38.38976 38.38976 0 0 0 54.2208 2.816c15.7696-14.1824 16.9984-38.5024 2.816-54.2208l-24.7808-27.4944h291.3792c21.1968 0 38.4-17.2032 38.4-38.4s-17.152-38.4-38.3488-38.4z" fill="#FFCD43" p-id="28263"></path></svg>