<svg t="1650446167452" class="icon" viewBox="0 0 1024 1024" version="1.1" xmlns="http://www.w3.org/2000/svg" p-id="814" width="200" height="200"><path d="M512 512m-512 0a512 512 0 1 0 1024 0 512 512 0 1 0-1024 0Z" fill="#FF4F5B" p-id="815"></path><path d="M292.37248 493.3632a36.4544 36.4544 0 0 0-36.53632 36.53632v225.28a36.57728 36.57728 0 0 0 73.19552-0.49152v-224.78848a36.33152 36.33152 0 0 0-36.6592-36.53632z" fill="#FFFFFF" p-id="816"></path><path d="M566.96832 325.71392h154.91072a46.40768 46.40768 0 0 0 46.36672-46.44864 46.40768 46.40768 0 0 0-46.36672-46.57152H302.12096a46.40768 46.40768 0 0 0-46.32576 46.36672 46.32576 46.32576 0 0 0 46.40768 46.65344h154.91072v56.89344a52.8384 52.8384 0 0 0 1.06496 10.8544 127.95904 127.95904 0 0 0-74.26048 116.08064v95.68256h-54.8864v93.10208h59.8016a128.08192 128.08192 0 0 0 246.45632 0h59.5968v-93.14304H640.2048v-95.68256a127.71328 127.71328 0 0 0-74.26048-116.08064 57.344 57.344 0 0 0 1.024-10.8544z" fill="#FFFFFF" p-id="817"></path><path d="M695.0912 698.28608v56.97536a36.57728 36.57728 0 0 0 73.19552-0.32768v-225.03424a36.57728 36.57728 0 0 0-73.19552 0v75.28448z" fill="#FFFFFF" p-id="818"></path></svg>