<svg t="1650446219490" class="icon" viewBox="0 0 1024 1024" version="1.1" xmlns="http://www.w3.org/2000/svg" p-id="967" width="200" height="200"><path d="M512 512m-512 0a512 512 0 1 0 1024 0 512 512 0 1 0-1024 0Z" fill="#00C188" p-id="968"></path><path d="M806.2976 699.10528h-45.056v-26.86976h-91.29984s-63.24224 137.13408-89.7024 133.57056h-118.5792a843.40736 843.40736 0 0 1-59.67872-133.57056H299.008v39.5264H254.1568v-239.53408H299.008v39.5264h104.16128s52.18304-130.41664 74.71104-133.57056V284.50816l-237.1584-26.86976s-39.5264-20.0704-15.03232-39.5264h341.48352s39.5264 46.65344 30.02368 160.48128c4.75136-1.18784 72.704 133.20192 72.704 133.20192h89.33376v-39.5264h44.6464v227.24608z" fill="#FFFFFF" p-id="969"></path></svg>