<svg t="1650446226341" class="icon" viewBox="0 0 1024 1024" version="1.1" xmlns="http://www.w3.org/2000/svg" p-id="1118" width="200" height="200"><path d="M512 512m-512 0a512 512 0 1 0 1024 0 512 512 0 1 0-1024 0Z" fill="#30A5FF" p-id="1119"></path><path d="M836.03456 765.952a45.056 45.056 0 0 1-6.02112 26.2144 45.91616 45.91616 0 0 1-39.77216 22.77376h-0.77824a46.24384 46.24384 0 0 1-26.70592-8.72448l-210.08384-120.46336a86.95808 86.95808 0 0 1-81.3056 0L260.46464 806.912a46.16192 46.16192 0 0 1-50.70848 1.55648h-0.24576a45.50656 45.50656 0 0 1-21.46304-42.76224v-309.6576a45.056 45.056 0 0 1 5.81632-28.2624 45.62944 45.62944 0 0 1 23.92064-19.98848A46.24384 46.24384 0 0 1 261.44768 413.696l210.16576 120.50432q3.80928-1.96608 7.74144-3.56352v-111.86176a108.17536 108.17536 0 1 1 65.24928 0v111.65696c2.6624 1.06496 5.24288 2.2528 7.74144 3.56352l211.27168-121.15968a46.24384 46.24384 0 0 1 25.02656-8.192h6.18496l2.21184 0.28672 2.17088 0.36864a45.8752 45.8752 0 0 1 26.29632 15.64672l1.55648 1.96608 0.57344 0.8192 0.86016 1.26976 0.2048 0.32768a45.056 45.056 0 0 1 6.88128 18.6368v0.57344a44.31872 44.31872 0 0 1 0.32768 4.75136v316.33408z m-593.92-279.7568v247.1936l185.38496-106.04544a85.64736 85.64736 0 0 1 0-35.10272z m304.61952-163.84a13.27104 13.27104 0 0 1 15.85152 0l13.7216 10.36288a38.17472 38.17472 0 0 0 18.51392 7.08608 13.7216 13.7216 0 0 0 3.19488 0.16384h1.51552a13.312 13.312 0 0 0 0-26.54208 14.21312 14.21312 0 0 1-5.81632-2.94912l-14.04928-10.52672a41.61536 41.61536 0 0 0-49.84832 0l-14.09024 10.52672a13.27104 13.27104 0 0 1-15.85152 0l-14.09024-10.52672a41.61536 41.61536 0 0 0-49.84832 0l-18.18624 13.7216a13.96736 13.96736 0 0 0-2.08896 19.21024 14.1312 14.1312 0 0 0 19.12832 3.11296l18.18624-13.7216a13.27104 13.27104 0 0 1 15.85152 0l14.04928 10.52672a41.5744 41.5744 0 0 0 49.84832 0l14.04928-10.52672z m49.68448 268.57472a84.21376 84.21376 0 0 1 0.53248 36.16768l184.32 105.30816v-247.15264l-184.77056 105.6768z" fill="#FFFFFF" p-id="1120"></path></svg>