<svg t="1650443329573" class="icon" viewBox="0 0 1024 1024" version="1.1" xmlns="http://www.w3.org/2000/svg" p-id="26149" width="200" height="200"><path d="M503.74656 511.83616m-501.76 0a501.76 501.76 0 1 0 1003.52 0 501.76 501.76 0 1 0-1003.52 0Z" fill="#1677FF" p-id="26150"></path><path d="M570.94144 235.35616v86.44608a46.08 46.08 0 0 0 42.92608 45.83424l3.15392 0.1024h84.5824V516.096a141.70112 141.70112 0 0 0-159.88736 231.99744l2.72384 2.27328 1.4336 1.10592H334.4384a45.7728 45.7728 0 0 1-45.64992-42.51648l-0.1024-3.2768V281.1904c0-24.1664 18.8416-44.01152 42.68032-45.69088l3.2768-0.12288h236.27776z m-27.50464 216.7808h-179.13856a4.13696 4.13696 0 0 0-3.9936 3.03104l-0.14336 1.10592v33.03424c0 1.90464 1.29024 3.4816 3.03104 3.97312l1.10592 0.16384h179.13856c1.90464 0 3.50208-1.29024 3.9936-3.03104l0.14336-1.10592v-33.03424a4.13696 4.13696 0 0 0-4.13696-4.13696z m0-96.19456h-179.13856a4.13696 4.13696 0 0 0-3.9936 3.03104l-0.14336 1.10592v33.01376c0 1.90464 1.29024 3.50208 3.03104 3.9936l1.10592 0.14336h179.13856c1.90464 0 3.50208-1.29024 3.9936-3.03104l0.14336-1.10592v-33.01376a4.13696 4.13696 0 0 0-4.13696-4.13696z m60.6208-120.58624l97.56672 97.5872h-74.58816c-12.6976 0-22.99904-10.30144-22.99904-22.99904v-74.58816z" fill="#FFFFFF" p-id="26151"></path><path d="M634.04032 529.94048a110.71488 110.71488 0 0 1 85.66784 180.85888l35.00032 34.97984a20.76672 20.76672 0 1 1-29.3888 29.36832l-37.60128-37.62176a110.71488 110.71488 0 1 1-53.67808-207.58528z m0.4096 43.99104a67.09248 67.09248 0 1 0 0 134.18496 67.09248 67.09248 0 0 0 0-134.18496z" fill="#FFFFFF" p-id="26152"></path></svg>