<svg t="1650442246188" class="icon" viewBox="0 0 1024 1024" version="1.1" xmlns="http://www.w3.org/2000/svg" p-id="6161" width="200" height="200"><path d="M512 512m-512 0a512 512 0 1 0 1024 0 512 512 0 1 0-1024 0Z" fill="#FFB26E" opacity=".15" p-id="6162"></path><path d="M224.907636 484.410182l114.338909 86.656 51.921455-159.767273-143.36 3.048727a39.028364 39.028364 0 0 0-22.912 70.050909" fill="#F7C055" opacity=".5" p-id="6163"></path><path d="M727.133091 742.353455l-41.611636-137.821091-136.296728 99.072 118.167273 82.269091a39.074909 39.074909 0 0 0 59.741091-43.52" fill="#F7C055" opacity=".5" p-id="6164"></path><path d="M771.607273 405.434182l-160.581818-3.246546-52.701091-151.749818a43.636364 43.636364 0 0 0-82.466909 0l-52.689455 151.749818-58.007273 178.676364-46.545454 153.669818a43.706182 43.706182 0 0 0 66.804363 48.488727l131.909819-91.822545 151.947636-110.545455 127.895273-96.965818a43.531636 43.531636 0 0 0-25.6-78.266182" fill="#F7C055" p-id="6165"></path></svg>