<svg t="1650442055127" class="icon" viewBox="0 0 1239 1024" version="1.1" xmlns="http://www.w3.org/2000/svg" p-id="2932" width="200" height="200"><path d="M727.04 0c282.752 0 512 229.248 512 512S1009.792 1024 727.04 1024 215.04 794.752 215.04 512 444.288 0 727.04 0z" fill="#FC7F2C" p-id="2933"></path><path d="M620.544 700.416h243.584l163.2-163.2a85.9136 85.9136 0 0 0 0-121.472L812.8 201.216a86.0416 86.0416 0 0 0-60.8-25.216h-101.632c-22.784 0-44.672 9.088-60.8 25.216L416.256 374.656a85.76 85.76 0 0 0 0 121.344l204.288 204.416z" fill="#FFFFFF" p-id="2934"></path><path d="M849.5744 274.0096l-147.2-128.896-147.2 128.896 147.2 128.896 147.2-128.896z" fill="#FC7F2C" p-id="2935"></path><path d="M984.576 820.224H465.28a27.6096 27.6096 0 0 1-25.216-29.312V751.36c-1.024-14.976 10.24-28.032 25.216-29.312h519.296c14.976 1.28 26.24 14.208 25.216 29.312v39.552c0.896 15.104-10.24 28.032-25.216 29.312" fill="#FEDFC5" p-id="2936"></path><path d="M854.144 393.728L654.848 593.024c-5.376 5.376-18.944 0.384-30.336-11.008l-28.032-28.032c-11.392-11.392-16.384-25.088-11.008-30.336l199.424-199.424c5.376-5.376 18.944-0.384 30.336 11.008l28.032 28.032c11.264 11.392 16.256 25.088 10.88 30.464M943.488 482.944L744.064 682.368c-5.376 5.376-18.944 0.384-30.336-11.008l-28.032-28.032c-11.392-11.392-16.384-25.088-11.008-30.336l199.424-199.424c5.376-5.376 18.944-0.384 30.336 11.008l28.032 28.032c11.264 11.264 16.256 24.96 11.008 30.336" fill="#FC7F2C" p-id="2937"></path></svg>